# xmcd
#
# Track frame offsets:
#	150
#	26475
#	55725
#	79125
#	103125
#	126675
#	136275
#	158625
#	197850
#	219975
#	254175
#
# Disc length: 3640 seconds
#
# Revision: 1
# Processed by: cddbd v1.5.1PL0 Copyright (c) Steve Scherf et al.
# Submitted via: audiograbber 1.83.01
#
DISCID=a30e360b
DTITLE=Alireaza Eftekhari - Hengameh
DYEAR=1900
DGENRE=
TTITLE0=Aarezo
TTITLE1=Deleh sheida
TTITLE2=Shaba-Hang
TTITLE3=Sheyaneh
TTITLE4=Khneyeh Darveash
TTITLE5=Henggameh
TTITLE6=Poshto panna
TTITLE7=Saazo avaaz
TTITLE8=Nazannean
TTITLE9=Saazo avaaz
TTITLE10=Naseemeh Ashennahi
EXTD=
EXTT0=
EXTT1=
EXTT2=
EXTT3=
EXTT4=
EXTT5=
EXTT6=
EXTT7=
EXTT8=
EXTT9=
EXTT10=
PLAYORDER=
